<?xml version="1.0" standalone="no"?>
<!DOCTYPE svg PUBLIC "-//W3C//DTD SVG 20010904//EN"
 "http://www.w3.org/TR/2001/REC-SVG-20010904/DTD/svg10.dtd">
<svg version="1.0" xmlns="http://www.w3.org/2000/svg"
 width="1080.000000pt" height="1080.000000pt" viewBox="0 0 1080.000000 1080.000000"
 preserveAspectRatio="xMidYMid meet">
<metadata>
Created by potrace 1.14, written by Peter Selinger 2001-2017
</metadata>
<g transform="translate(0.000000,1080.000000) scale(0.100000,-0.100000)"
fill="#000000" stroke="none">
<path d="M5112 10790 c-769 -39 -1594 -271 -2272 -640 -1374 -745 -2357 -2037
-2699 -3547 -156 -689 -178 -1374 -66 -2070 257 -1595 1227 -2998 2630 -3808
883 -509 1911 -761 2921 -715 1044 47 2028 380 2874 973 763 535 1399 1293
1788 2132 543 1169 653 2464 316 3710 -153 565 -428 1159 -757 1630 -676 971
-1601 1673 -2702 2051 -303 105 -751 209 -1070 249 -262 33 -694 48 -963 35z
m1093 -1280 c334 -24 593 -74 985 -192 466 -139 717 -265 751 -377 9 -32 8
-48 -6 -92 -21 -65 -92 -221 -104 -229 -4 -3 -59 -99 -121 -213 -175 -321
-216 -350 -385 -268 -278 136 -747 247 -1190 282 -184 14 -618 6 -835 -16
-549 -55 -1118 -198 -1528 -383 -397 -178 -680 -398 -984 -763 -138 -166 -173
-215 -343 -471 -84 -128 -166 -251 -182 -272 -53 -75 -160 -105 -251 -71 -77
28 -332 168 -332 182 0 7 -23 51 -51 98 -28 48 -49 88 -47 91 3 2 27 -8 55
-23 33 -18 57 -40 73 -67 40 -71 88 -122 140 -150 80 -44 79 -21 -4 64 -42 43
-76 80 -76 82 0 3 33 -7 74 -21 46 -16 89 -40 115 -63 31 -29 50 -38 76 -38
44 0 44 9 -1 40 -42 28 -44 26 59 35 53 5 77 11 77 20 0 7 20 28 45 46 24 19
45 41 45 49 0 8 9 30 20 48 23 37 28 84 8 64 -19 -19 -34 -15 -71 18 -19 17
-40 30 -46 30 -23 0 -10 -29 30 -65 37 -33 40 -39 26 -52 -13 -13 -18 -13 -47
2 -18 10 -55 37 -81 62 -28 26 -50 40 -54 33 -9 -14 26 -60 82 -109 25 -23 44
-43 42 -44 -46 -37 -51 -37 -94 -7 -32 22 -129 123 -151 159 -2 1 -7 0 -13 -4
-15 -9 -2 -31 75 -125 64 -79 64 -80 39 -86 -14 -3 -41 -3 -60 0 -38 7 -82 59
-162 188 -34 55 -53 72 -53 47 0 -11 70 -139 104 -192 l19 -28 -49 20 c-105
41 -101 37 -165 168 -33 68 -64 123 -70 123 -14 0 -12 -10 30 -113 21 -53 35
-97 30 -97 -5 0 -29 10 -54 22 -43 21 -46 26 -76 110 -18 48 -36 88 -40 88
-12 0 -11 -4 10 -86 l18 -71 -21 4 c-19 4 -18 2 6 -19 14 -13 39 -52 55 -88
17 -36 46 -86 66 -113 l37 -47 -93 57 c-103 63 -225 151 -246 177 -18 22 -16
77 5 118 29 55 226 346 324 478 414 556 821 952 1280 1247 675 433 1622 735
2520 802 165 12 601 13 765 1z m-100 -1980 c238 -35 523 -114 826 -229 72 -27
103 -67 102 -132 -2 -107 -44 -219 -150 -394 -33 -55 -84 -147 -113 -203 -62
-122 -140 -213 -203 -237 -41 -15 -44 -15 -97 8 -254 112 -595 170 -872 148
-267 -21 -469 -78 -718 -202 -284 -143 -544 -340 -742 -564 -77 -86 -199 -181
-257 -200 -77 -24 -169 5 -335 106 -63 38 -176 94 -251 124 -155 63 -215 100
-249 153 -43 66 -42 90 5 184 146 291 417 604 726 836 158 119 300 205 508
307 378 187 746 283 1220 319 124 9 465 -4 600 -24z m-455 -1507 c156 -53 287
-166 358 -308 47 -97 57 -147 56 -295 0 -120 -3 -144 -27 -217 -65 -194 -233
-366 -412 -422 -393 -123 -818 186 -842 614 -10 174 49 319 186 455 188 187
445 252 681 173z m1403 -317 c103 -60 152 -155 152 -296 0 -76 -3 -92 -32
-150 -36 -71 -307 -407 -723 -895 -135 -159 -253 -301 -262 -315 -14 -23 -13
-43 8 -232 27 -246 52 -578 61 -813 5 -138 3 -180 -10 -225 -13 -47 -14 -93
-7 -330 14 -448 -17 -1179 -54 -1305 -32 -104 -140 -225 -232 -258 -127 -45
-229 1 -285 127 -20 46 -21 61 -18 245 6 314 1 728 -12 974 -10 190 -15 229
-28 236 -9 5 -59 10 -111 12 l-95 4 -33 -130 c-133 -527 -288 -1067 -330
-1154 -32 -65 -96 -115 -164 -130 -147 -32 -294 102 -321 292 -9 66 -7 84 22
207 92 389 151 666 245 1153 10 49 11 80 4 110 -5 23 -7 76 -4 117 16 205 37
579 43 782 l6 228 -34 32 c-170 160 -669 532 -982 732 -76 49 -155 108 -176
132 -123 140 -54 345 137 404 125 39 178 25 375 -96 318 -197 768 -520 957
-689 l36 -31 302 26 303 25 216 265 c120 146 332 411 474 590 252 320 278 347
358 377 57 21 160 11 214 -21z"/>
<path d="M7618 8981 c-107 -57 -69 -77 42 -23 30 15 56 35 58 45 5 26 -23 20
-100 -22z"/>
<path d="M7685 8922 c-7 -41 -9 -44 -87 -83 -96 -48 -95 -70 2 -40 35 11 65
19 66 18 1 -1 -7 -25 -17 -53 l-20 -52 -77 -20 c-42 -12 -88 -22 -101 -24 -14
-2 -26 -9 -29 -15 -4 -15 37 -16 113 -3 28 4 52 6 54 4 2 -2 -11 -24 -30 -48
-34 -45 -34 -45 -96 -46 -61 0 -81 -11 -46 -24 23 -9 163 -9 188 0 18 6 17 4
-5 -21 -56 -64 -73 -74 -122 -75 -26 0 -72 9 -103 21 -31 12 -59 18 -63 14
-10 -10 38 -43 91 -61 26 -8 47 -18 47 -20 0 -3 -21 -14 -46 -24 l-46 -20 -37
21 c-20 12 -60 40 -89 62 -29 22 -56 36 -60 32 -7 -7 106 -115 121 -115 4 0 7
-4 7 -10 0 -5 -15 -10 -34 -10 -27 0 -46 12 -104 65 -38 36 -73 65 -76 65 -15
0 -2 -24 44 -79 28 -33 50 -65 50 -71 0 -5 5 -10 10 -10 6 0 33 -16 62 -35 54
-38 85 -49 115 -43 14 3 7 12 -30 38 l-49 35 37 3 c20 2 51 -1 67 -7 38 -13
88 -14 108 -1 12 7 8 12 -19 23 l-33 14 79 46 c64 38 89 60 133 119 30 40 73
90 97 111 46 41 55 63 23 54 -11 -3 -20 -3 -20 0 0 18 25 83 32 83 15 0 68 83
68 107 0 38 -15 31 -114 -61 -22 -20 -41 -34 -43 -32 -2 2 2 24 9 50 9 36 21
52 50 71 32 21 58 58 58 81 0 14 -43 0 -69 -22 -17 -14 -31 -22 -31 -17 0 5
-6 18 -14 28 -12 17 -14 16 -21 -23z m13 -267 c-19 -38 -30 -48 -73 -64 -27
-10 -52 -17 -54 -15 -9 8 86 100 114 110 16 7 31 12 32 13 2 0 -7 -19 -19 -44z"/>
<path d="M6820 8467 c0 -7 14 -21 31 -31 16 -10 59 -40 94 -67 43 -33 66 -45
71 -37 9 15 -63 80 -131 119 -56 32 -65 35 -65 16z"/>
<path d="M6942 8472 c7 -16 196 -192 206 -192 36 0 -29 76 -127 150 -62 47
-87 60 -79 42z"/>
<path d="M2395 7027 c-12 -10 -14 -16 -7 -21 15 -9 54 12 47 25 -8 12 -18 11
-40 -4z"/>
<path d="M1410 6968 c0 -48 41 -158 70 -191 40 -43 40 -15 1 56 -16 28 -35 72
-42 97 -15 55 -29 73 -29 38z"/>
<path d="M2256 6971 c-10 -15 31 -43 60 -39 37 4 44 28 9 28 -14 0 -35 5 -45
10 -10 6 -21 6 -24 1z"/>
<path d="M6812 6883 c-45 -22 -69 -39 -62 -43 9 -6 6 -16 -11 -39 -22 -30 -33
-36 -89 -44 -23 -4 -23 -4 7 -12 l32 -7 -26 -35 c-22 -29 -32 -34 -57 -30 -17
2 -39 7 -48 12 -12 4 -18 3 -18 -5 0 -6 14 -17 30 -23 37 -14 37 -20 4 -46
-33 -26 -45 -26 -95 0 -49 25 -49 6 -1 -27 l32 -22 -23 -16 -22 -17 25 6 c14
4 51 9 82 12 65 6 95 27 58 41 -23 8 -23 9 8 30 16 12 36 22 44 22 7 0 25 8
38 17 l24 17 -23 6 c-22 5 -21 8 33 62 55 55 68 82 44 91 -7 2 7 13 32 24 48
21 95 64 69 62 -8 0 -47 -17 -87 -36z"/>
<path d="M6015 6600 c-6 -10 111 -89 133 -90 18 0 15 14 -10 37 -40 36 -114
68 -123 53z"/>
<path d="M6110 6592 c14 -9 60 -43 103 -76 43 -32 81 -56 84 -52 18 18 -76
100 -152 132 -46 19 -66 17 -35 -4z"/>
<path d="M6220 6601 c0 -12 143 -144 175 -161 38 -20 42 -4 9 31 -29 31 -168
139 -178 139 -4 0 -6 -4 -6 -9z"/>
<path d="M6360 6575 c0 -25 160 -125 200 -125 36 0 17 24 -34 42 -26 10 -72
34 -102 53 -54 35 -64 39 -64 30z"/>
<path d="M3145 6064 c8 -75 30 -153 50 -182 29 -41 35 -12 11 52 -13 34 -30
88 -37 120 -17 77 -32 84 -24 10z"/>
<path d="M3206 6048 c22 -73 91 -228 115 -257 38 -46 31 -11 -23 106 -30 65
-63 137 -73 161 -25 59 -37 53 -19 -10z"/>
<path d="M3301 6002 c-1 -7 13 -42 29 -79 17 -36 30 -70 30 -75 0 -11 8 -20
83 -103 48 -53 74 -57 37 -6 -18 27 -19 31 -5 31 9 0 42 -27 73 -61 85 -92
132 -110 68 -26 -30 40 -32 44 -13 39 12 -3 55 -36 95 -74 39 -37 77 -68 82
-68 23 0 7 30 -40 74 l-50 47 37 -7 c21 -4 56 -22 78 -40 22 -18 53 -37 68
-43 41 -16 35 10 -10 47 l-37 30 41 6 c29 5 50 3 72 -8 34 -18 61 -21 61 -6 0
5 -12 16 -27 23 l-27 14 22 12 c12 7 39 11 59 9 39 -3 57 16 24 27 -17 5 -18
9 -9 24 9 14 20 18 48 14 22 -3 40 -1 44 6 5 7 -1 11 -16 11 -13 0 -36 7 -53
16 -20 10 -31 12 -33 4 -2 -6 -20 -17 -40 -25 -33 -14 -37 -14 -57 5 -21 20
-45 27 -45 13 0 -4 9 -17 21 -29 l21 -22 -32 -7 c-23 -5 -36 -2 -51 11 -22 20
-38 12 -19 -11 16 -19 14 -21 -32 -28 -35 -5 -40 -3 -75 40 -40 49 -59 43 -23
-7 12 -17 20 -33 18 -35 -2 -3 -20 -2 -39 1 -29 5 -41 16 -74 67 -21 34 -40
64 -42 66 -2 2 -6 2 -9 -1 -3 -3 7 -29 21 -58 14 -29 24 -54 22 -56 -8 -8 -60
16 -74 34 -7 9 -30 45 -50 80 -35 59 -53 76 -53 51 0 -6 14 -36 31 -66 17 -30
30 -56 28 -58 -2 -2 -18 3 -36 10 -23 10 -43 34 -77 92 -59 103 -65 111 -65
95z"/>
<path d="M4155 5871 c-3 -2 -2 -8 1 -12 11 -18 84 -7 84 12 0 8 -77 8 -85 0z"/>
</g>
</svg>
