<svg xmlns="http://www.w3.org/2000/svg" xmlns:xlink="http://www.w3.org/1999/xlink" width="1080" zoomAndPan="magnify" viewBox="0 0 810 809.999993" height="1080" preserveAspectRatio="xMidYMid meet" version="1.0"><defs><clipPath id="id1"><path d="M 225 243 L 528 243 L 528 397 L 225 397 Z M 225 243 " clip-rule="nonzero"/></clipPath><clipPath id="id2"><path d="M 81 301.929688 L 269.320312 -50.683594 L 615.976562 134.457031 L 427.660156 487.070312 Z M 81 301.929688 " clip-rule="nonzero"/></clipPath><clipPath id="id3"><path d="M 81 301.929688 L 269.320312 -50.683594 L 615.976562 134.457031 L 427.660156 487.070312 Z M 81 301.929688 " clip-rule="nonzero"/></clipPath><clipPath id="id4"><path d="M 358 358 L 454 358 L 454 454 L 358 454 Z M 358 358 " clip-rule="nonzero"/></clipPath><clipPath id="id5"><path d="M 81 301.929688 L 269.320312 -50.683594 L 615.976562 134.457031 L 427.660156 487.070312 Z M 81 301.929688 " clip-rule="nonzero"/></clipPath><clipPath id="id6"><path d="M 81 301.929688 L 269.320312 -50.683594 L 615.976562 134.457031 L 427.660156 487.070312 Z M 81 301.929688 " clip-rule="nonzero"/></clipPath><clipPath id="id7"><path d="M 96 95 L 597 95 L 597 329 L 96 329 Z M 96 95 " clip-rule="nonzero"/></clipPath><clipPath id="id8"><path d="M 81 301.929688 L 269.320312 -50.683594 L 615.976562 134.457031 L 427.660156 487.070312 Z M 81 301.929688 " clip-rule="nonzero"/></clipPath><clipPath id="id9"><path d="M 81 301.929688 L 269.320312 -50.683594 L 615.976562 134.457031 L 427.660156 487.070312 Z M 81 301.929688 " clip-rule="nonzero"/></clipPath><clipPath id="id10"><path d="M 352 352 L 460 352 L 460 460 L 352 460 Z M 352 352 " clip-rule="nonzero"/></clipPath><clipPath id="id11"><path d="M 81 301.929688 L 269.320312 -50.683594 L 615.976562 134.457031 L 427.660156 487.070312 Z M 81 301.929688 " clip-rule="nonzero"/></clipPath><clipPath id="id12"><path d="M 81 301.929688 L 269.320312 -50.683594 L 615.976562 134.457031 L 427.660156 487.070312 Z M 81 301.929688 " clip-rule="nonzero"/></clipPath><clipPath id="id13"><path d="M 222 235 L 536 235 L 536 402 L 222 402 Z M 222 235 " clip-rule="nonzero"/></clipPath><clipPath id="id14"><path d="M 81 301.929688 L 269.320312 -50.683594 L 615.976562 134.457031 L 427.660156 487.070312 Z M 81 301.929688 " clip-rule="nonzero"/></clipPath><clipPath id="id15"><path d="M 81 301.929688 L 269.320312 -50.683594 L 615.976562 134.457031 L 427.660156 487.070312 Z M 81 301.929688 " clip-rule="nonzero"/></clipPath><clipPath id="id16"><path d="M 91 85 L 605 85 L 605 333 L 91 333 Z M 91 85 " clip-rule="nonzero"/></clipPath><clipPath id="id17"><path d="M 81 301.929688 L 269.320312 -50.683594 L 615.976562 134.457031 L 427.660156 487.070312 Z M 81 301.929688 " clip-rule="nonzero"/></clipPath><clipPath id="id18"><path d="M 81 301.929688 L 269.320312 -50.683594 L 615.976562 134.457031 L 427.660156 487.070312 Z M 81 301.929688 " clip-rule="nonzero"/></clipPath><clipPath id="id19"><path d="M 364 388 L 415 388 L 415 451 L 364 451 Z M 364 388 " clip-rule="nonzero"/></clipPath><clipPath id="id20"><path d="M 81 301.929688 L 269.320312 -50.683594 L 615.976562 134.457031 L 427.660156 487.070312 Z M 81 301.929688 " clip-rule="nonzero"/></clipPath><clipPath id="id21"><path d="M 81 301.929688 L 269.320312 -50.683594 L 615.976562 134.457031 L 427.660156 487.070312 Z M 81 301.929688 " clip-rule="nonzero"/></clipPath><clipPath id="id22"><path d="M 362 376 L 385 376 L 385 402 L 362 402 Z M 362 376 " clip-rule="nonzero"/></clipPath><clipPath id="id23"><path d="M 81 301.929688 L 269.320312 -50.683594 L 615.976562 134.457031 L 427.660156 487.070312 Z M 81 301.929688 " clip-rule="nonzero"/></clipPath><clipPath id="id24"><path d="M 81 301.929688 L 269.320312 -50.683594 L 615.976562 134.457031 L 427.660156 487.070312 Z M 81 301.929688 " clip-rule="nonzero"/></clipPath><clipPath id="id25"><path d="M 370 368 L 394 368 L 394 380 L 370 380 Z M 370 368 " clip-rule="nonzero"/></clipPath><clipPath id="id26"><path d="M 81 301.929688 L 269.320312 -50.683594 L 615.976562 134.457031 L 427.660156 487.070312 Z M 81 301.929688 " clip-rule="nonzero"/></clipPath><clipPath id="id27"><path d="M 81 301.929688 L 269.320312 -50.683594 L 615.976562 134.457031 L 427.660156 487.070312 Z M 81 301.929688 " clip-rule="nonzero"/></clipPath><clipPath id="id28"><path d="M 383 364 L 404 364 L 404 371 L 383 371 Z M 383 364 " clip-rule="nonzero"/></clipPath><clipPath id="id29"><path d="M 81 301.929688 L 269.320312 -50.683594 L 615.976562 134.457031 L 427.660156 487.070312 Z M 81 301.929688 " clip-rule="nonzero"/></clipPath><clipPath id="id30"><path d="M 81 301.929688 L 269.320312 -50.683594 L 615.976562 134.457031 L 427.660156 487.070312 Z M 81 301.929688 " clip-rule="nonzero"/></clipPath><clipPath id="id31"><path d="M 394 361 L 407 361 L 407 366 L 394 366 Z M 394 361 " clip-rule="nonzero"/></clipPath><clipPath id="id32"><path d="M 81 301.929688 L 269.320312 -50.683594 L 615.976562 134.457031 L 427.660156 487.070312 Z M 81 301.929688 " clip-rule="nonzero"/></clipPath><clipPath id="id33"><path d="M 81 301.929688 L 269.320312 -50.683594 L 615.976562 134.457031 L 427.660156 487.070312 Z M 81 301.929688 " clip-rule="nonzero"/></clipPath><clipPath id="id34"><path d="M 409 439 L 421 439 L 421 446 L 409 446 Z M 409 439 " clip-rule="nonzero"/></clipPath><clipPath id="id35"><path d="M 81 301.929688 L 269.320312 -50.683594 L 615.976562 134.457031 L 427.660156 487.070312 Z M 81 301.929688 " clip-rule="nonzero"/></clipPath><clipPath id="id36"><path d="M 81 301.929688 L 269.320312 -50.683594 L 615.976562 134.457031 L 427.660156 487.070312 Z M 81 301.929688 " clip-rule="nonzero"/></clipPath><clipPath id="id37"><path d="M 414 439 L 425 439 L 425 444 L 414 444 Z M 414 439 " clip-rule="nonzero"/></clipPath><clipPath id="id38"><path d="M 81 301.929688 L 269.320312 -50.683594 L 615.976562 134.457031 L 427.660156 487.070312 Z M 81 301.929688 " clip-rule="nonzero"/></clipPath><clipPath id="id39"><path d="M 81 301.929688 L 269.320312 -50.683594 L 615.976562 134.457031 L 427.660156 487.070312 Z M 81 301.929688 " clip-rule="nonzero"/></clipPath><clipPath id="id40"><path d="M 235 351 L 243 351 L 243 371 L 235 371 Z M 235 351 " clip-rule="nonzero"/></clipPath><clipPath id="id41"><path d="M 81 301.929688 L 269.320312 -50.683594 L 615.976562 134.457031 L 427.660156 487.070312 Z M 81 301.929688 " clip-rule="nonzero"/></clipPath><clipPath id="id42"><path d="M 81 301.929688 L 269.320312 -50.683594 L 615.976562 134.457031 L 427.660156 487.070312 Z M 81 301.929688 " clip-rule="nonzero"/></clipPath><clipPath id="id43"><path d="M 239 352 L 252 352 L 252 378 L 239 378 Z M 239 352 " clip-rule="nonzero"/></clipPath><clipPath id="id44"><path d="M 81 301.929688 L 269.320312 -50.683594 L 615.976562 134.457031 L 427.660156 487.070312 Z M 81 301.929688 " clip-rule="nonzero"/></clipPath><clipPath id="id45"><path d="M 81 301.929688 L 269.320312 -50.683594 L 615.976562 134.457031 L 427.660156 487.070312 Z M 81 301.929688 " clip-rule="nonzero"/></clipPath><clipPath id="id46"><path d="M 247 359 L 311 359 L 311 392 L 247 392 Z M 247 359 " clip-rule="nonzero"/></clipPath><clipPath id="id47"><path d="M 81 301.929688 L 269.320312 -50.683594 L 615.976562 134.457031 L 427.660156 487.070312 Z M 81 301.929688 " clip-rule="nonzero"/></clipPath><clipPath id="id48"><path d="M 81 301.929688 L 269.320312 -50.683594 L 615.976562 134.457031 L 427.660156 487.070312 Z M 81 301.929688 " clip-rule="nonzero"/></clipPath><clipPath id="id49"><path d="M 311 368 L 318 368 L 318 372 L 311 372 Z M 311 368 " clip-rule="nonzero"/></clipPath><clipPath id="id50"><path d="M 81 301.929688 L 269.320312 -50.683594 L 615.976562 134.457031 L 427.660156 487.070312 Z M 81 301.929688 " clip-rule="nonzero"/></clipPath><clipPath id="id51"><path d="M 81 301.929688 L 269.320312 -50.683594 L 615.976562 134.457031 L 427.660156 487.070312 Z M 81 301.929688 " clip-rule="nonzero"/></clipPath><clipPath id="id52"><path d="M 450 314 L 463 314 L 463 322 L 450 322 Z M 450 314 " clip-rule="nonzero"/></clipPath><clipPath id="id53"><path d="M 81 301.929688 L 269.320312 -50.683594 L 615.976562 134.457031 L 427.660156 487.070312 Z M 81 301.929688 " clip-rule="nonzero"/></clipPath><clipPath id="id54"><path d="M 81 301.929688 L 269.320312 -50.683594 L 615.976562 134.457031 L 427.660156 487.070312 Z M 81 301.929688 " clip-rule="nonzero"/></clipPath><clipPath id="id55"><path d="M 456 313 L 473 313 L 473 326 L 456 326 Z M 456 313 " clip-rule="nonzero"/></clipPath><clipPath id="id56"><path d="M 81 301.929688 L 269.320312 -50.683594 L 615.976562 134.457031 L 427.660156 487.070312 Z M 81 301.929688 " clip-rule="nonzero"/></clipPath><clipPath id="id57"><path d="M 81 301.929688 L 269.320312 -50.683594 L 615.976562 134.457031 L 427.660156 487.070312 Z M 81 301.929688 " clip-rule="nonzero"/></clipPath><clipPath id="id58"><path d="M 466 314 L 483 314 L 483 329 L 466 329 Z M 466 314 " clip-rule="nonzero"/></clipPath><clipPath id="id59"><path d="M 81 301.929688 L 269.320312 -50.683594 L 615.976562 134.457031 L 427.660156 487.070312 Z M 81 301.929688 " clip-rule="nonzero"/></clipPath><clipPath id="id60"><path d="M 81 301.929688 L 269.320312 -50.683594 L 615.976562 134.457031 L 427.660156 487.070312 Z M 81 301.929688 " clip-rule="nonzero"/></clipPath><clipPath id="id61"><path d="M 476 316 L 494 316 L 494 327 L 476 327 Z M 476 316 " clip-rule="nonzero"/></clipPath><clipPath id="id62"><path d="M 81 301.929688 L 269.320312 -50.683594 L 615.976562 134.457031 L 427.660156 487.070312 Z M 81 301.929688 " clip-rule="nonzero"/></clipPath><clipPath id="id63"><path d="M 81 301.929688 L 269.320312 -50.683594 L 615.976562 134.457031 L 427.660156 487.070312 Z M 81 301.929688 " clip-rule="nonzero"/></clipPath><clipPath id="id64"><path d="M 482 290 L 519 290 L 519 321 L 482 321 Z M 482 290 " clip-rule="nonzero"/></clipPath><clipPath id="id65"><path d="M 81 301.929688 L 269.320312 -50.683594 L 615.976562 134.457031 L 427.660156 487.070312 Z M 81 301.929688 " clip-rule="nonzero"/></clipPath><clipPath id="id66"><path d="M 81 301.929688 L 269.320312 -50.683594 L 615.976562 134.457031 L 427.660156 487.070312 Z M 81 301.929688 " clip-rule="nonzero"/></clipPath><clipPath id="id67"><path d="M 105 285 L 114 285 L 114 304 L 105 304 Z M 105 285 " clip-rule="nonzero"/></clipPath><clipPath id="id68"><path d="M 81 301.929688 L 269.320312 -50.683594 L 615.976562 134.457031 L 427.660156 487.070312 Z M 81 301.929688 " clip-rule="nonzero"/></clipPath><clipPath id="id69"><path d="M 81 301.929688 L 269.320312 -50.683594 L 615.976562 134.457031 L 427.660156 487.070312 Z M 81 301.929688 " clip-rule="nonzero"/></clipPath><clipPath id="id70"><path d="M 110 280 L 173 280 L 173 319 L 110 319 Z M 110 280 " clip-rule="nonzero"/></clipPath><clipPath id="id71"><path d="M 81 301.929688 L 269.320312 -50.683594 L 615.976562 134.457031 L 427.660156 487.070312 Z M 81 301.929688 " clip-rule="nonzero"/></clipPath><clipPath id="id72"><path d="M 81 301.929688 L 269.320312 -50.683594 L 615.976562 134.457031 L 427.660156 487.070312 Z M 81 301.929688 " clip-rule="nonzero"/></clipPath><clipPath id="id73"><path d="M 168 286 L 177 286 L 177 291 L 168 291 Z M 168 286 " clip-rule="nonzero"/></clipPath><clipPath id="id74"><path d="M 81 301.929688 L 269.320312 -50.683594 L 615.976562 134.457031 L 427.660156 487.070312 Z M 81 301.929688 " clip-rule="nonzero"/></clipPath><clipPath id="id75"><path d="M 81 301.929688 L 269.320312 -50.683594 L 615.976562 134.457031 L 427.660156 487.070312 Z M 81 301.929688 " clip-rule="nonzero"/></clipPath><clipPath id="id76"><path d="M 178 282 L 183 282 L 183 285 L 178 285 Z M 178 282 " clip-rule="nonzero"/></clipPath><clipPath id="id77"><path d="M 81 301.929688 L 269.320312 -50.683594 L 615.976562 134.457031 L 427.660156 487.070312 Z M 81 301.929688 " clip-rule="nonzero"/></clipPath><clipPath id="id78"><path d="M 81 301.929688 L 269.320312 -50.683594 L 615.976562 134.457031 L 427.660156 487.070312 Z M 81 301.929688 " clip-rule="nonzero"/></clipPath><clipPath id="id79"><path d="M 511 174 L 527 174 L 527 186 L 511 186 Z M 511 174 " clip-rule="nonzero"/></clipPath><clipPath id="id80"><path d="M 81 301.929688 L 269.320312 -50.683594 L 615.976562 134.457031 L 427.660156 487.070312 Z M 81 301.929688 " clip-rule="nonzero"/></clipPath><clipPath id="id81"><path d="M 81 301.929688 L 269.320312 -50.683594 L 615.976562 134.457031 L 427.660156 487.070312 Z M 81 301.929688 " clip-rule="nonzero"/></clipPath><clipPath id="id82"><path d="M 520 173 L 537 173 L 537 190 L 520 190 Z M 520 173 " clip-rule="nonzero"/></clipPath><clipPath id="id83"><path d="M 81 301.929688 L 269.320312 -50.683594 L 615.976562 134.457031 L 427.660156 487.070312 Z M 81 301.929688 " clip-rule="nonzero"/></clipPath><clipPath id="id84"><path d="M 81 301.929688 L 269.320312 -50.683594 L 615.976562 134.457031 L 427.660156 487.070312 Z M 81 301.929688 " clip-rule="nonzero"/></clipPath><clipPath id="id85"><path d="M 530 137 L 590 137 L 590 194 L 530 194 Z M 530 137 " clip-rule="nonzero"/></clipPath><clipPath id="id86"><path d="M 81 301.929688 L 269.320312 -50.683594 L 615.976562 134.457031 L 427.660156 487.070312 Z M 81 301.929688 " clip-rule="nonzero"/></clipPath><clipPath id="id87"><path d="M 81 301.929688 L 269.320312 -50.683594 L 615.976562 134.457031 L 427.660156 487.070312 Z M 81 301.929688 " clip-rule="nonzero"/></clipPath><clipPath id="id88"><path d="M 566 133 L 580 133 L 580 141 L 566 141 Z M 566 133 " clip-rule="nonzero"/></clipPath><clipPath id="id89"><path d="M 81 301.929688 L 269.320312 -50.683594 L 615.976562 134.457031 L 427.660156 487.070312 Z M 81 301.929688 " clip-rule="nonzero"/></clipPath><clipPath id="id90"><path d="M 81 301.929688 L 269.320312 -50.683594 L 615.976562 134.457031 L 427.660156 487.070312 Z M 81 301.929688 " clip-rule="nonzero"/></clipPath><clipPath id="id91"><path d="M 267 375 L 545 375 L 545 748.914062 L 267 748.914062 Z M 267 375 " clip-rule="nonzero"/></clipPath></defs><path fill="#242634" d="M 810 405 C 810 411.628906 809.835938 418.253906 809.511719 424.871094 C 809.1875 431.492188 808.699219 438.101562 808.050781 444.695312 C 807.398438 451.292969 806.589844 457.871094 805.617188 464.425781 C 804.644531 470.980469 803.511719 477.511719 802.21875 484.011719 C 800.925781 490.511719 799.472656 496.976562 797.863281 503.40625 C 796.25 509.835938 794.484375 516.222656 792.5625 522.566406 C 790.636719 528.90625 788.558594 535.199219 786.324219 541.441406 C 784.09375 547.679688 781.707031 553.863281 779.171875 559.988281 C 776.632812 566.109375 773.949219 572.167969 771.117188 578.160156 C 768.28125 584.152344 765.300781 590.070312 762.179688 595.914062 C 759.054688 601.761719 755.789062 607.527344 752.378906 613.210938 C 748.972656 618.898438 745.425781 624.496094 741.746094 630.003906 C 738.0625 635.515625 734.246094 640.933594 730.296875 646.257812 C 726.351562 651.582031 722.273438 656.804688 718.070312 661.929688 C 713.863281 667.054688 709.535156 672.070312 705.085938 676.980469 C 700.632812 681.890625 696.066406 686.691406 691.378906 691.378906 C 686.691406 696.066406 681.890625 700.632812 676.980469 705.085938 C 672.070312 709.535156 667.054688 713.863281 661.929688 718.070312 C 656.804688 722.273438 651.582031 726.351562 646.257812 730.300781 C 640.933594 734.246094 635.515625 738.0625 630.003906 741.746094 C 624.496094 745.425781 618.898438 748.972656 613.210938 752.378906 C 607.527344 755.789062 601.761719 759.054688 595.914062 762.179688 C 590.070312 765.300781 584.152344 768.28125 578.160156 771.117188 C 572.167969 773.949219 566.109375 776.632812 559.988281 779.171875 C 553.863281 781.707031 547.679688 784.09375 541.441406 786.324219 C 535.199219 788.558594 528.90625 790.636719 522.566406 792.5625 C 516.222656 794.484375 509.835938 796.25 503.40625 797.863281 C 496.976562 799.472656 490.511719 800.925781 484.011719 802.21875 C 477.511719 803.511719 470.980469 804.644531 464.425781 805.617188 C 457.871094 806.589844 451.292969 807.398438 444.695312 808.050781 C 438.101562 808.699219 431.492188 809.1875 424.871094 809.511719 C 418.253906 809.835938 411.628906 810 405 810 C 398.371094 810 391.746094 809.835938 385.128906 809.511719 C 378.507812 809.1875 371.898438 808.699219 365.304688 808.050781 C 358.707031 807.398438 352.128906 806.589844 345.574219 805.617188 C 339.019531 804.644531 332.488281 803.511719 325.988281 802.21875 C 319.488281 800.925781 313.023438 799.472656 306.59375 797.863281 C 300.164062 796.25 293.777344 794.484375 287.433594 792.5625 C 281.09375 790.636719 274.800781 788.558594 268.558594 786.324219 C 262.320312 784.09375 256.136719 781.707031 250.011719 779.171875 C 243.890625 776.632812 237.832031 773.949219 231.839844 771.117188 C 225.847656 768.28125 219.929688 765.300781 214.085938 762.179688 C 208.238281 759.054688 202.472656 755.789062 196.789062 752.378906 C 191.101562 748.972656 185.503906 745.425781 179.992188 741.746094 C 174.484375 738.0625 169.066406 734.246094 163.742188 730.300781 C 158.417969 726.351562 153.195312 722.273438 148.070312 718.070312 C 142.945312 713.863281 137.929688 709.535156 133.019531 705.085938 C 128.109375 700.632812 123.308594 696.066406 118.621094 691.378906 C 113.933594 686.691406 109.367188 681.890625 104.914062 676.980469 C 100.464844 672.070312 96.136719 667.054688 91.929688 661.929688 C 87.726562 656.804688 83.648438 651.582031 79.699219 646.257812 C 75.753906 640.933594 71.9375 635.515625 68.253906 630.003906 C 64.574219 624.496094 61.027344 618.898438 57.621094 613.210938 C 54.210938 607.527344 50.945312 601.761719 47.820312 595.914062 C 44.699219 590.070312 41.71875 584.152344 38.882812 578.160156 C 36.050781 572.167969 33.363281 566.109375 30.828125 559.988281 C 28.292969 553.863281 25.90625 547.679688 23.675781 541.441406 C 21.441406 535.199219 19.363281 528.90625 17.4375 522.566406 C 15.515625 516.222656 13.746094 509.835938 12.136719 503.40625 C 10.527344 496.976562 9.074219 490.511719 7.78125 484.011719 C 6.488281 477.511719 5.355469 470.980469 4.382812 464.425781 C 3.410156 457.871094 2.601562 451.292969 1.949219 444.695312 C 1.300781 438.101562 0.8125 431.492188 0.488281 424.871094 C 0.164062 418.253906 0 411.628906 0 405 C 0 398.371094 0.164062 391.746094 0.488281 385.128906 C 0.8125 378.507812 1.300781 371.898438 1.949219 365.304688 C 2.601562 358.707031 3.410156 352.128906 4.382812 345.574219 C 5.355469 339.019531 6.488281 332.488281 7.78125 325.988281 C 9.074219 319.488281 10.527344 313.023438 12.136719 306.59375 C 13.746094 300.164062 15.515625 293.777344 17.4375 287.433594 C 19.363281 281.09375 21.441406 274.800781 23.675781 268.558594 C 25.90625 262.320312 28.292969 256.136719 30.828125 250.011719 C 33.363281 243.890625 36.050781 237.832031 38.882812 231.839844 C 41.71875 225.847656 44.699219 219.929688 47.820312 214.085938 C 50.945312 208.238281 54.210938 202.472656 57.621094 196.789062 C 61.027344 191.101562 64.574219 185.503906 68.253906 179.992188 C 71.9375 174.484375 75.753906 169.066406 79.699219 163.742188 C 83.648438 158.417969 87.726562 153.195312 91.929688 148.070312 C 96.136719 142.945312 100.464844 137.929688 104.914062 133.019531 C 109.367188 128.109375 113.933594 123.308594 118.621094 118.621094 C 123.308594 113.933594 128.109375 109.367188 133.019531 104.914062 C 137.929688 100.464844 142.945312 96.136719 148.070312 91.929688 C 153.195312 87.726562 158.417969 83.648438 163.742188 79.699219 C 169.066406 75.753906 174.484375 71.9375 179.992188 68.253906 C 185.503906 64.574219 191.101562 61.027344 196.789062 57.621094 C 202.472656 54.210938 208.238281 50.945312 214.085938 47.820312 C 219.929688 44.699219 225.847656 41.71875 231.839844 38.882812 C 237.832031 36.050781 243.890625 33.367188 250.011719 30.828125 C 256.136719 28.292969 262.320312 25.90625 268.558594 23.675781 C 274.800781 21.441406 281.09375 19.363281 287.433594 17.4375 C 293.777344 15.515625 300.164062 13.746094 306.59375 12.136719 C 313.023438 10.527344 319.488281 9.074219 325.988281 7.78125 C 332.488281 6.488281 339.019531 5.355469 345.574219 4.382812 C 352.128906 3.410156 358.707031 2.601562 365.304688 1.949219 C 371.898438 1.300781 378.507812 0.8125 385.128906 0.488281 C 391.746094 0.164062 398.371094 0 405 0 C 411.628906 0 418.253906 0.164062 424.871094 0.488281 C 431.492188 0.8125 438.101562 1.300781 444.695312 1.949219 C 451.292969 2.601562 457.871094 3.410156 464.425781 4.382812 C 470.980469 5.355469 477.511719 6.488281 484.011719 7.78125 C 490.511719 9.074219 496.976562 10.527344 503.40625 12.136719 C 509.835938 13.746094 516.222656 15.515625 522.566406 17.4375 C 528.90625 19.363281 535.199219 21.441406 541.441406 23.675781 C 547.679688 25.90625 553.863281 28.292969 559.988281 30.828125 C 566.109375 33.367188 572.167969 36.050781 578.160156 38.882812 C 584.152344 41.71875 590.070312 44.699219 595.914062 47.820312 C 601.761719 50.945312 607.527344 54.210938 613.210938 57.621094 C 618.898438 61.027344 624.496094 64.574219 630.003906 68.253906 C 635.515625 71.9375 640.933594 75.753906 646.257812 79.699219 C 651.582031 83.648438 656.804688 87.726562 661.929688 91.929688 C 667.054688 96.136719 672.070312 100.464844 676.980469 104.914062 C 681.890625 109.367188 686.691406 113.933594 691.378906 118.621094 C 696.066406 123.308594 700.632812 128.109375 705.085938 133.019531 C 709.535156 137.929688 713.863281 142.945312 718.070312 148.070312 C 722.273438 153.195312 726.351562 158.417969 730.300781 163.742188 C 734.246094 169.066406 738.0625 174.484375 741.746094 179.992188 C 745.425781 185.503906 748.972656 191.101562 752.378906 196.789062 C 755.789062 202.472656 759.054688 208.238281 762.179688 214.085938 C 765.300781 219.929688 768.28125 225.847656 771.117188 231.839844 C 773.949219 237.832031 776.632812 243.890625 779.171875 250.011719 C 781.707031 256.136719 784.09375 262.320312 786.324219 268.558594 C 788.558594 274.800781 790.636719 281.09375 792.5625 287.433594 C 794.484375 293.777344 796.253906 300.164062 797.863281 306.59375 C 799.472656 313.023438 800.925781 319.488281 802.21875 325.988281 C 803.511719 332.488281 804.644531 339.019531 805.617188 345.574219 C 806.589844 352.128906 807.398438 358.707031 808.050781 365.304688 C 808.699219 371.898438 809.1875 378.507812 809.511719 385.128906 C 809.835938 391.746094 810 398.371094 810 405 Z M 810 405 " fill-opacity="1" fill-rule="nonzero"/><g clip-path="url(#id1)"><g clip-path="url(#id2)"><g clip-path="url(#id3)"><path fill="#fe6f27" d="M 347.726562 255.910156 C 297.503906 273.164062 248.632812 309.984375 225.597656 358.882812 C 225.660156 359.035156 225.710938 359.203125 225.71875 359.402344 C 226.292969 374.886719 248.3125 377.300781 259.019531 383.632812 C 266.253906 387.910156 273.34375 393.222656 281.460938 395.671875 C 291.453125 398.691406 295.390625 392.9375 303.070312 388.410156 C 303.359375 388.242188 303.675781 388.171875 303.984375 388.160156 C 323.613281 363.894531 352.179688 342.578125 380.800781 331.753906 C 416.0625 318.417969 454.285156 320.5 488.550781 335.738281 C 488.765625 335.835938 488.949219 335.941406 489.109375 336.0625 C 501.996094 334.734375 508.011719 315.730469 513.996094 305.890625 C 518.675781 298.179688 524.300781 289.863281 526.457031 280.929688 C 527.15625 278.023438 529.160156 269.222656 526.488281 266.8125 C 525.09375 265.558594 524.582031 264.96875 523.9375 263.867188 C 496.0625 253.0625 468.4375 244.375 438.238281 243.273438 C 407.707031 242.164062 376.703125 245.960938 347.726562 255.910156 Z M 347.726562 255.910156 " fill-opacity="1" fill-rule="nonzero"/></g></g></g><g clip-path="url(#id4)"><g clip-path="url(#id5)"><g clip-path="url(#id6)"><path fill="#fe6f27" d="M 364.300781 383.679688 C 352.03125 406.65625 360.726562 435.332031 383.691406 447.597656 C 406.65625 459.863281 435.324219 451.140625 447.59375 428.164062 C 459.867188 405.183594 451.171875 376.511719 428.207031 364.246094 C 405.242188 351.980469 376.574219 360.699219 364.300781 383.679688 Z M 364.300781 383.679688 " fill-opacity="1" fill-rule="nonzero"/></g></g></g><g clip-path="url(#id7)"><g clip-path="url(#id8)"><g clip-path="url(#id9)"><path fill="#fe6f27" d="M 322.132812 111.855469 C 276.640625 124.535156 232.390625 144.222656 195.175781 173.703125 C 156.5 204.347656 126.386719 242.925781 99.652344 284.09375 C 98.957031 285.160156 95.71875 291.316406 97.371094 294.378906 C 99.546875 298.402344 120.730469 311.316406 127.394531 314.824219 C 133.660156 318.128906 150.074219 328.027344 156.203125 328.089844 C 159.753906 328.121094 163.324219 327.066406 166.289062 325.035156 C 167.554688 324.171875 168.703125 323.160156 169.796875 322.09375 C 169.824219 321.992188 190.558594 288.871094 202.421875 273.910156 C 213.574219 259.855469 225.578125 246.140625 239.542969 234.800781 C 267.71875 211.90625 301.894531 198.789062 336.894531 190.285156 C 406.875 173.296875 484.691406 170.652344 551.738281 200.453125 C 552.574219 200.824219 553.164062 201.394531 553.542969 202.042969 C 556.40625 202.722656 559.28125 203.28125 561.867188 202.109375 C 566.625 199.957031 569.636719 195.558594 572.109375 191.109375 C 576.984375 182.332031 581.648438 173.398438 586.445312 164.566406 C 586.832031 163.851562 587.339844 163.386719 587.894531 163.09375 C 591.226562 156.605469 594.449219 150.382812 596.203125 143.3125 C 600.371094 126.503906 536.660156 110.390625 526.460938 107.324219 C 505.644531 101.070312 483.976562 97.683594 462.28125 96.398438 C 415.179688 93.59375 367.570312 99.179688 322.132812 111.855469 Z M 322.132812 111.855469 " fill-opacity="1" fill-rule="nonzero"/></g></g></g><g clip-path="url(#id10)"><g clip-path="url(#id11)"><g clip-path="url(#id12)"><path fill="#050a30" d="M 358.730469 380.703125 C 344.8125 406.761719 354.675781 439.269531 380.714844 453.175781 C 406.75 467.078125 439.25 457.195312 453.164062 431.140625 C 467.078125 405.085938 457.21875 372.578125 431.183594 358.671875 C 405.144531 344.765625 372.644531 354.652344 358.730469 380.703125 Z M 447.59375 428.164062 C 435.324219 451.140625 406.65625 459.863281 383.691406 447.597656 C 360.726562 435.332031 352.03125 406.65625 364.300781 383.679688 C 376.574219 360.699219 405.242188 351.980469 428.207031 364.246094 C 451.171875 376.511719 459.867188 405.183594 447.59375 428.164062 Z M 447.59375 428.164062 " fill-opacity="1" fill-rule="nonzero"/></g></g></g><g clip-path="url(#id13)"><g clip-path="url(#id14)"><g clip-path="url(#id15)"><path fill="#050a30" d="M 435.355469 235.996094 C 404.785156 234.886719 373.851562 239.765625 344.914062 249.554688 C 317.273438 258.898438 292.457031 274.835938 270.441406 293.761719 C 250.238281 311.132812 229.519531 333.886719 222.640625 360.257812 C 222.527344 360.695312 222.722656 361.089844 223.027344 361.339844 C 223.898438 378.210938 247.84375 380.667969 259.488281 387.90625 C 271.507812 395.375 292.515625 410.199219 303.433594 394.761719 C 326.738281 373.558594 347.566406 352.070312 377.261719 339.324219 C 412.21875 324.328125 451.304688 325.234375 485.976562 340.410156 C 486.96875 340.84375 487.902344 340.671875 488.621094 340.1875 C 502.078125 347.457031 515.777344 315.1875 520.671875 307.441406 C 524.996094 300.578125 543.585938 265.890625 530.4375 260.183594 C 530.148438 259.394531 529.539062 258.699219 528.527344 258.296875 C 497.953125 246.125 468.457031 237.199219 435.355469 235.996094 Z M 526.488281 266.8125 C 529.160156 269.222656 527.15625 278.023438 526.457031 280.929688 C 524.300781 289.863281 518.675781 298.179688 513.996094 305.890625 C 508.011719 315.730469 501.996094 334.734375 489.109375 336.0625 C 488.949219 335.941406 488.765625 335.835938 488.550781 335.738281 C 454.285156 320.5 416.0625 318.417969 380.800781 331.753906 C 352.179688 342.578125 323.613281 363.894531 303.984375 388.160156 C 303.675781 388.171875 303.359375 388.242188 303.070312 388.410156 C 295.390625 392.9375 291.453125 398.691406 281.460938 395.671875 C 273.34375 393.222656 266.253906 387.910156 259.019531 383.632812 C 248.3125 377.300781 226.292969 374.886719 225.71875 359.402344 C 225.710938 359.203125 225.660156 359.035156 225.597656 358.882812 C 248.632812 309.984375 297.503906 273.164062 347.726562 255.910156 C 376.703125 245.960938 407.707031 242.164062 438.238281 243.273438 C 468.4375 244.375 496.0625 253.0625 523.9375 263.867188 C 524.582031 264.96875 525.09375 265.558594 526.488281 266.8125 Z M 526.488281 266.8125 " fill-opacity="1" fill-rule="nonzero"/></g></g></g><g clip-path="url(#id16)"><g clip-path="url(#id17)"><g clip-path="url(#id18)"><path fill="#050a30" d="M 319.601562 101.511719 C 225.394531 127.390625 145.933594 195.417969 95.320312 276.628906 C 91.671875 282.476562 89.78125 288.621094 92.324219 295.207031 C 93.035156 297.039062 94.308594 298.917969 95.882812 300.59375 C 95.636719 300.804688 137.964844 325.664062 144.3125 328.488281 C 154.941406 334.351562 161.027344 333.253906 167.40625 330.023438 C 171.664062 327.863281 174.964844 324.125 177.691406 320.308594 C 179.566406 317.675781 198.082031 288.253906 206.503906 277.707031 C 218.253906 262.996094 231.371094 249.511719 246.089844 237.753906 C 273.46875 215.882812 307.910156 204.515625 341.582031 196.632812 C 375.460938 188.703125 410.5625 184.929688 445.339844 185.527344 C 481.429688 186.144531 515.832031 194.765625 549.433594 207.460938 C 550.214844 207.757812 550.910156 207.78125 551.527344 207.636719 C 557.101562 210.703125 564.964844 209.320312 570.167969 205.402344 C 580.535156 197.589844 586.648438 180.234375 592.660156 169.097656 C 600.5 160.84375 606.101562 147.492188 603.878906 137.421875 C 601.710938 127.589844 552.363281 100.40625 472.335938 87.980469 C 423.734375 80.4375 366.917969 88.515625 319.601562 101.511719 Z M 596.203125 143.3125 C 594.449219 150.382812 591.226562 156.605469 587.894531 163.09375 C 587.339844 163.386719 586.832031 163.851562 586.445312 164.566406 C 581.648438 173.398438 576.984375 182.332031 572.109375 191.109375 C 569.636719 195.558594 566.625 199.957031 561.867188 202.109375 C 559.28125 203.28125 556.40625 202.722656 553.542969 202.042969 C 553.164062 201.394531 552.574219 200.824219 551.738281 200.453125 C 484.691406 170.652344 406.875 173.296875 336.894531 190.285156 C 301.894531 198.789062 267.71875 211.90625 239.542969 234.800781 C 225.578125 246.140625 213.574219 259.855469 202.421875 273.910156 C 190.558594 288.871094 169.824219 321.992188 169.796875 322.09375 C 168.703125 323.160156 167.554688 324.171875 166.289062 325.035156 C 163.324219 327.066406 159.753906 328.121094 156.203125 328.089844 C 150.074219 328.027344 133.660156 318.128906 127.394531 314.824219 C 120.730469 311.316406 99.546875 298.402344 97.371094 294.378906 C 95.71875 291.316406 98.957031 285.160156 99.652344 284.09375 C 126.386719 242.925781 156.5 204.347656 195.175781 173.703125 C 232.390625 144.222656 276.640625 124.535156 322.132812 111.855469 C 367.570312 99.179688 415.179688 93.59375 462.28125 96.398438 C 483.976562 97.683594 505.644531 101.070312 526.460938 107.324219 C 536.660156 110.394531 600.371094 126.503906 596.203125 143.3125 Z M 596.203125 143.3125 " fill-opacity="1" fill-rule="nonzero"/></g></g></g><g clip-path="url(#id19)"><g clip-path="url(#id20)"><g clip-path="url(#id21)"><path fill="#050a30" d="M 373.367188 389.011719 C 365.921875 398.328125 360.828125 416.269531 367.621094 427.117188 C 367.980469 427.699219 368.835938 427.316406 368.703125 426.667969 C 367.730469 421.796875 367.523438 417.4375 367.902344 413.28125 C 368.292969 417.996094 369.953125 422.421875 372.496094 426.433594 C 373.421875 431.304688 375.371094 435.75 378.429688 438.644531 C 378.992188 439.179688 379.765625 438.457031 379.433594 437.820312 C 378.429688 435.859375 377.558594 433.957031 376.835938 432.03125 C 378.597656 433.925781 380.554688 435.667969 382.648438 437.261719 C 385.839844 442.816406 390.84375 447.386719 396.390625 448.683594 C 396.953125 448.820312 397.253906 448.125 396.796875 447.792969 C 394.070312 445.828125 391.585938 443.894531 389.398438 441.621094 C 391.742188 442.894531 394.15625 443.984375 396.601562 444.867188 C 399.722656 447.683594 403.40625 449.695312 407.515625 450.03125 C 407.808594 450.054688 407.976562 449.667969 407.71875 449.496094 C 406.382812 448.585938 405.035156 447.726562 403.695312 446.851562 C 405.105469 447.125 406.511719 447.347656 407.894531 447.472656 C 408.574219 447.53125 408.695312 446.671875 408.285156 446.289062 C 410.015625 447.214844 411.824219 447.890625 413.605469 448.164062 C 414.277344 448.277344 414.875 447.359375 414.242188 446.882812 C 412.316406 445.457031 410.105469 444.414062 408.0625 443.15625 C 405.839844 441.789062 403.742188 440.222656 401.519531 438.84375 C 400.917969 438.476562 400.148438 439.332031 400.589844 439.890625 C 402.449219 442.222656 405.089844 444.519531 407.976562 446.125 C 404.507812 445.117188 401.15625 443.949219 397.949219 442.613281 C 394.574219 439.605469 391.917969 435.800781 388.992188 432.386719 C 388.570312 431.894531 387.890625 432.507812 388.132812 433.035156 C 389.179688 435.300781 390.535156 437.660156 392.148438 439.875 C 389.546875 438.496094 387.09375 436.953125 384.777344 435.246094 C 382.671875 431.074219 382.132812 426.425781 380.308594 422.15625 C 380.109375 421.699219 379.296875 421.820312 379.222656 422.308594 C 378.792969 425.164062 379.144531 428.257812 380.0625 431.300781 C 378.3125 429.640625 376.683594 427.851562 375.183594 425.910156 C 375.007812 424.894531 374.875 423.863281 374.804688 422.785156 C 374.390625 416.671875 376.273438 410.925781 376.6875 404.910156 C 376.734375 404.28125 375.875 404.152344 375.578125 404.625 C 372.929688 408.792969 371.679688 414.910156 371.898438 420.996094 C 370.464844 418.535156 369.191406 415.890625 368.152344 412.996094 C 368.109375 412.875 367.988281 412.910156 367.921875 412.992188 C 368.679688 405.234375 371.488281 398.191406 375.359375 389.980469 C 375.9375 388.757812 374.097656 388.09375 373.367188 389.011719 Z M 373.367188 389.011719 " fill-opacity="1" fill-rule="nonzero"/></g></g></g><g clip-path="url(#id22)"><g clip-path="url(#id23)"><g clip-path="url(#id24)"><path fill="#050a30" d="M 383.066406 376.566406 C 372.242188 377.492188 362.222656 390.414062 362.269531 400.839844 C 362.265625 401.328125 362.929688 401.46875 363.097656 401.003906 C 364.972656 395.863281 366.976562 391.402344 370.628906 387.222656 C 374.429688 382.878906 379.21875 381.359375 383.871094 378.367188 C 384.800781 377.769531 383.972656 376.492188 383.066406 376.566406 Z M 383.066406 376.566406 " fill-opacity="1" fill-rule="nonzero"/></g></g></g><g clip-path="url(#id25)"><g clip-path="url(#id26)"><g clip-path="url(#id27)"><path fill="#050a30" d="M 381.21875 370.011719 C 376.5625 371.472656 372.769531 374.546875 370.390625 378.773438 C 370.21875 379.078125 370.589844 379.503906 370.871094 379.21875 C 373.980469 376.085938 377.667969 373.773438 381.921875 372.574219 C 384.058594 371.972656 386.28125 371.789062 388.484375 371.773438 C 390.148438 371.757812 391.421875 372.207031 392.90625 371.316406 C 393.359375 371.050781 393.292969 370.480469 392.988281 370.144531 C 390.558594 367.457031 384.253906 369.054688 381.21875 370.011719 Z M 381.21875 370.011719 " fill-opacity="1" fill-rule="nonzero"/></g></g></g><g clip-path="url(#id28)"><g clip-path="url(#id29)"><g clip-path="url(#id30)"><path fill="#050a30" d="M 394.035156 364.8125 C 390.175781 364.289062 386.945312 365.226562 383.503906 366.824219 C 382.972656 367.070312 383.3125 367.898438 383.867188 367.769531 C 387.253906 366.984375 390.972656 366.855469 394.378906 367.554688 C 397.183594 368.128906 399.453125 370.273438 402.21875 370.59375 C 402.816406 370.664062 403.464844 370.050781 403.171875 369.425781 C 401.640625 366.28125 397.253906 365.25 394.035156 364.8125 Z M 394.035156 364.8125 " fill-opacity="1" fill-rule="nonzero"/></g></g></g><g clip-path="url(#id31)"><g clip-path="url(#id32)"><g clip-path="url(#id33)"><path fill="#050a30" d="M 400.09375 362.285156 C 398.417969 362.074219 396.757812 362 395.074219 361.878906 C 394.070312 361.800781 393.78125 363.167969 394.78125 363.433594 C 396.679688 363.933594 398.542969 364.46875 400.460938 364.878906 C 402.03125 365.21875 403.765625 365.820312 405.355469 365.410156 C 406.160156 365.203125 406.605469 364.101562 405.792969 363.570312 C 404.15625 362.5 401.980469 362.53125 400.09375 362.285156 Z M 400.09375 362.285156 " fill-opacity="1" fill-rule="nonzero"/></g></g></g><g clip-path="url(#id34)"><g clip-path="url(#id35)"><g clip-path="url(#id36)"><path fill="#050a30" d="M 415.960938 442.585938 C 413.796875 441.820312 411.78125 440.628906 409.671875 439.714844 C 409.171875 439.503906 408.84375 440.214844 409.160156 440.558594 C 410.703125 442.253906 412.464844 443.578125 414.554688 444.527344 C 416.210938 445.277344 418.074219 446.371094 419.792969 445.429688 C 420.074219 445.273438 420.203125 444.84375 420.007812 444.570312 C 419.035156 443.222656 417.476562 443.121094 415.960938 442.585938 Z M 415.960938 442.585938 " fill-opacity="1" fill-rule="nonzero"/></g></g></g><g clip-path="url(#id37)"><g clip-path="url(#id38)"><g clip-path="url(#id39)"><path fill="#050a30" d="M 420.609375 440.714844 C 418.792969 440.605469 417.25 439.660156 415.59375 439.03125 C 415.113281 438.851562 414.605469 439.523438 414.914062 439.9375 C 416.769531 442.398438 421.6875 444.640625 424.246094 442.03125 C 424.628906 441.648438 424.367188 441.019531 423.886719 440.894531 C 422.785156 440.601562 421.746094 440.785156 420.609375 440.714844 Z M 420.609375 440.714844 " fill-opacity="1" fill-rule="nonzero"/></g></g></g><g clip-path="url(#id40)"><g clip-path="url(#id41)"><g clip-path="url(#id42)"><path fill="#050a30" d="M 235.78125 351.464844 C 235.988281 357.371094 236.679688 365.355469 240.671875 370.082031 C 241.214844 370.722656 242.257812 370.289062 242.023438 369.425781 C 241.191406 366.367188 239.730469 363.488281 238.789062 360.460938 C 237.871094 357.503906 237.167969 354.449219 236.628906 351.402344 C 236.542969 350.933594 235.769531 350.96875 235.78125 351.464844 Z M 235.78125 351.464844 " fill-opacity="1" fill-rule="nonzero"/></g></g></g><g clip-path="url(#id43)"><g clip-path="url(#id44)"><g clip-path="url(#id45)"><path fill="#050a30" d="M 239.53125 352.953125 C 240.460938 357.207031 242.058594 361.269531 243.726562 365.285156 C 245.40625 369.304688 247.152344 373.65625 250.109375 376.921875 C 250.484375 377.34375 251.238281 376.902344 251.070312 376.367188 C 249.773438 372.226562 247.402344 368.386719 245.613281 364.441406 C 243.839844 360.523438 242.351562 356.476562 240.390625 352.648438 C 240.152344 352.183594 239.421875 352.449219 239.53125 352.953125 Z M 239.53125 352.953125 " fill-opacity="1" fill-rule="nonzero"/></g></g></g><g clip-path="url(#id46)"><g clip-path="url(#id47)"><g clip-path="url(#id48)"><path fill="#050a30" d="M 306.832031 373.257812 C 306.109375 373.15625 305.425781 372.890625 304.789062 372.546875 C 304.632812 372.1875 304.269531 371.945312 303.878906 371.972656 C 303.746094 371.867188 303.601562 371.777344 303.46875 371.667969 C 302.742188 371.0625 301.859375 371.96875 302.1875 372.675781 C 300.40625 373.539062 298.738281 374.359375 297.109375 375.113281 C 295.640625 374.203125 294.289062 373.121094 293.058594 371.878906 C 292.378906 371.195312 291.203125 372.316406 291.824219 373.054688 C 292.675781 374.042969 293.734375 375.105469 294.894531 376.101562 C 293.4375 376.734375 291.996094 377.289062 290.519531 377.761719 C 289.492188 376.867188 288.515625 375.910156 287.582031 374.929688 C 286.941406 374.253906 286.0625 375.304688 286.636719 375.984375 C 287.242188 376.691406 287.949219 377.484375 288.703125 378.296875 C 286.671875 378.832031 284.539062 379.1875 282.214844 379.308594 C 280.371094 377.421875 278.601562 375.457031 276.992188 373.359375 C 276.554688 372.792969 275.605469 373.277344 275.996094 373.9375 C 276.976562 375.589844 278.171875 377.476562 279.53125 379.359375 C 278.929688 379.347656 278.332031 379.316406 277.703125 379.277344 C 276.308594 379.183594 274.917969 378.996094 273.527344 378.773438 C 271.292969 375.839844 269.320312 372.691406 267.496094 369.5 C 267.078125 368.773438 266.046875 369.4375 266.398438 370.171875 C 267.65625 372.796875 269.09375 375.570312 270.738281 378.25 C 268.914062 377.847656 267.105469 377.347656 265.324219 376.761719 C 265.222656 376.632812 265.113281 376.515625 265.015625 376.386719 C 262.308594 372.75 259.976562 368.816406 257.785156 364.851562 C 257.316406 364 256.132812 364.832031 256.546875 365.660156 C 258.023438 368.632812 259.726562 372.097656 261.71875 375.460938 C 259.792969 374.695312 257.914062 373.832031 256.082031 372.898438 C 255.773438 372.464844 255.453125 372.035156 255.160156 371.582031 C 252.582031 367.734375 250.375 363.585938 248.429688 359.378906 C 248.15625 358.773438 247.117188 359.203125 247.351562 359.824219 C 248.6875 363.410156 250.339844 367.316406 252.367188 371.015625 C 251.808594 371.082031 251.390625 371.890625 251.941406 372.28125 C 252.527344 372.695312 253.171875 373.113281 253.835938 373.535156 C 255.945312 376.941406 258.417969 380.050781 261.363281 382.347656 C 261.894531 382.761719 262.722656 382.207031 262.332031 381.570312 C 261.191406 379.6875 259.859375 377.933594 258.515625 376.175781 C 260.125 376.996094 261.847656 377.769531 263.640625 378.515625 C 266.21875 382.339844 269.234375 385.742188 272.816406 387.695312 C 273.230469 387.917969 273.777344 387.488281 273.511719 387.042969 C 272.058594 384.597656 270.097656 382.402344 268.167969 380.195312 C 269.738281 380.722656 271.34375 381.191406 272.960938 381.601562 C 275.792969 385.546875 279.179688 389.035156 283.304688 391.1875 C 284.300781 391.699219 284.867188 390.304688 284.214844 389.636719 C 281.738281 387.125 279.039062 384.953125 276.609375 382.40625 C 278.601562 382.785156 280.605469 383.046875 282.570312 383.179688 C 285.300781 386.238281 288.476562 388.8125 291.921875 389.6875 C 292.4375 389.820312 292.992188 389.175781 292.632812 388.703125 C 291.007812 386.582031 288.710938 384.941406 286.53125 383.238281 C 288.828125 383.152344 291.050781 382.839844 293.136719 382.257812 C 295.101562 383.664062 297.222656 384.679688 299.363281 384.644531 C 300.183594 384.632812 300.210938 383.617188 299.652344 383.242188 C 298.484375 382.472656 297.195312 381.898438 295.914062 381.300781 C 297.257812 380.730469 298.515625 380.003906 299.683594 379.140625 C 301.292969 379.804688 302.972656 380.136719 304.625 379.839844 C 305.445312 379.683594 305.738281 378.527344 304.886719 378.167969 C 303.917969 377.75 302.90625 377.476562 301.898438 377.1875 C 302.746094 376.308594 303.511719 375.304688 304.195312 374.199219 C 306.097656 375.226562 308.507812 375.769531 310.175781 374.4375 C 310.507812 374.167969 310.316406 373.515625 309.898438 373.449219 C 308.886719 373.292969 307.851562 373.402344 306.832031 373.257812 Z M 306.832031 373.257812 " fill-opacity="1" fill-rule="nonzero"/></g></g></g><g clip-path="url(#id49)"><g clip-path="url(#id50)"><g clip-path="url(#id51)"><path fill="#050a30" d="M 316.8125 369.015625 C 315.578125 369.644531 313.84375 369.589844 312.523438 369.398438 C 311.382812 369.246094 311.125 370.980469 312.257812 371.164062 C 314.078125 371.453125 316.140625 371.480469 317.652344 370.28125 C 318.429688 369.660156 317.679688 368.582031 316.8125 369.015625 Z M 316.8125 369.015625 " fill-opacity="1" fill-rule="nonzero"/></g></g></g><g clip-path="url(#id52)"><g clip-path="url(#id53)"><g clip-path="url(#id54)"><path fill="#050a30" d="M 452.121094 314.558594 C 451.292969 314.210938 450.449219 315.417969 451.253906 315.945312 C 453.082031 317.140625 454.960938 318.234375 456.816406 319.394531 C 458.28125 320.3125 459.667969 321.425781 461.367188 321.820312 C 461.945312 321.949219 462.402344 321.300781 462.097656 320.804688 C 460.195312 317.703125 455.320312 315.9375 452.121094 314.558594 Z M 452.121094 314.558594 " fill-opacity="1" fill-rule="nonzero"/></g></g></g><g clip-path="url(#id55)"><g clip-path="url(#id56)"><g clip-path="url(#id57)"><path fill="#050a30" d="M 457.675781 313.9375 C 457.003906 313.636719 456.46875 314.542969 457.105469 314.945312 C 459.96875 316.761719 462.800781 318.691406 465.519531 320.726562 C 467.5625 322.253906 469.308594 324.277344 471.691406 325.242188 C 472.164062 325.433594 472.460938 324.851562 472.292969 324.484375 C 470.023438 319.359375 462.484375 316.144531 457.675781 313.9375 Z M 457.675781 313.9375 " fill-opacity="1" fill-rule="nonzero"/></g></g></g><g clip-path="url(#id58)"><g clip-path="url(#id59)"><g clip-path="url(#id60)"><path fill="#050a30" d="M 466.289062 315.488281 C 471.015625 319.558594 475.714844 324.769531 481.09375 327.925781 C 481.722656 328.296875 482.421875 327.464844 482.027344 326.886719 C 478.511719 321.765625 472.207031 318.015625 467.25 314.40625 C 466.511719 313.867188 465.570312 314.867188 466.289062 315.488281 Z M 466.289062 315.488281 " fill-opacity="1" fill-rule="nonzero"/></g></g></g><g clip-path="url(#id61)"><g clip-path="url(#id62)"><g clip-path="url(#id63)"><path fill="#050a30" d="M 476.941406 317.234375 C 479.75 319.960938 482.890625 322.269531 486.355469 324.105469 C 488.179688 325.082031 491.777344 327.171875 493.734375 325.660156 C 493.9375 325.503906 493.925781 325.15625 493.757812 324.980469 C 492.433594 323.632812 489.757812 323.417969 488.027344 322.671875 C 484.332031 321.082031 480.894531 318.878906 477.835938 316.273438 C 477.191406 315.726562 476.324219 316.644531 476.941406 317.234375 Z M 476.941406 317.234375 " fill-opacity="1" fill-rule="nonzero"/></g></g></g><g clip-path="url(#id64)"><g clip-path="url(#id65)"><g clip-path="url(#id66)"><path fill="#050a30" d="M 516.890625 290.859375 C 513.117188 292.476562 509.960938 294.914062 505.933594 296.058594 C 505.09375 296.296875 505.496094 297.449219 506.304688 297.320312 C 506.730469 297.25 507.160156 297.167969 507.589844 297.085938 C 506.238281 298.9375 504.917969 300.738281 503.609375 302.480469 C 501.878906 303.015625 500.03125 303.039062 498.214844 302.726562 C 497.417969 302.589844 497.152344 303.679688 497.917969 303.9375 C 499.136719 304.351562 500.554688 304.5625 502.007812 304.558594 C 500.511719 306.46875 498.976562 308.308594 497.351562 310.058594 C 495.285156 309.988281 493.261719 309.386719 491.386719 308.511719 C 490.441406 308.066406 489.804688 309.480469 490.710938 309.972656 C 492.074219 310.71875 493.832031 311.40625 495.679688 311.820312 C 494.199219 313.300781 492.59375 314.695312 490.878906 316.035156 C 490.820312 316.027344 490.761719 316.027344 490.707031 316.011719 C 488.070312 315.511719 485.601562 314.289062 483.339844 312.898438 C 482.824219 312.585938 482.265625 313.292969 482.695312 313.71875 C 484.4375 315.457031 486.355469 316.835938 488.554688 317.757812 C 487.632812 318.390625 486.707031 319.019531 485.710938 319.609375 C 485.273438 319.871094 485.507812 320.675781 486.039062 320.496094 C 487.605469 319.960938 489.15625 319.265625 490.683594 318.464844 C 490.746094 318.484375 490.804688 318.511719 490.871094 318.527344 C 493.097656 319.082031 497.238281 319.484375 498.46875 317.085938 C 498.609375 316.824219 498.550781 316.417969 498.25 316.277344 C 497.230469 315.824219 496.0625 315.835938 494.855469 315.9375 C 496.460938 314.8125 498 313.5625 499.445312 312.203125 C 501.601562 312.125 503.613281 311.453125 504.988281 309.792969 C 505.425781 309.273438 504.964844 308.589844 504.320312 308.714844 C 503.636719 308.847656 502.976562 309.035156 502.320312 309.226562 C 503.800781 307.527344 505.121094 305.710938 506.25 303.816406 C 508.640625 302.929688 510.566406 301.21875 511.015625 298.476562 C 511.128906 297.8125 510.421875 297.464844 509.925781 297.886719 C 509.4375 298.300781 508.988281 298.734375 508.535156 299.164062 C 508.828125 298.417969 509.09375 297.664062 509.316406 296.910156 C 509.335938 296.835938 509.300781 296.769531 509.292969 296.707031 C 512.46875 295.890625 515.570312 294.515625 517.828125 292.175781 C 518.40625 291.578125 517.632812 290.535156 516.890625 290.859375 Z M 516.890625 290.859375 " fill-opacity="1" fill-rule="nonzero"/></g></g></g><g clip-path="url(#id67)"><g clip-path="url(#id68)"><g clip-path="url(#id69)"><path fill="#050a30" d="M 105.464844 286.582031 C 106.265625 292.203125 108.203125 299.417969 112.355469 303.527344 C 112.871094 304.03125 113.753906 303.429688 113.527344 302.765625 C 112.613281 300.105469 110.910156 297.660156 109.703125 295.109375 C 108.390625 292.316406 107.4375 289.363281 106.851562 286.339844 C 106.695312 285.550781 105.351562 285.789062 105.464844 286.582031 Z M 105.464844 286.582031 " fill-opacity="1" fill-rule="nonzero"/></g></g></g><g clip-path="url(#id70)"><g clip-path="url(#id71)"><g clip-path="url(#id72)"><path fill="#050a30" d="M 171.203125 292.304688 C 170.925781 292.699219 170.648438 293.070312 170.367188 293.457031 C 169.847656 293.347656 169.320312 293.257812 168.796875 293.050781 C 166.800781 292.273438 165.238281 290.507812 163.886719 288.917969 C 162.796875 287.628906 161.015625 289.476562 162.050781 290.761719 C 163.066406 292.019531 165.851562 294.945312 168.429688 295.996094 C 167.703125 296.902344 166.972656 297.773438 166.226562 298.566406 C 164.578125 297.816406 162.777344 297.203125 161.382812 296.234375 C 158.914062 294.53125 156.761719 292.53125 154.84375 290.226562 C 153.988281 289.195312 152.550781 290.4375 153.265625 291.519531 C 155.417969 294.785156 157.996094 297.617188 161.21875 299.847656 C 161.894531 300.316406 162.640625 300.804688 163.425781 301.238281 C 161.941406 302.503906 160.414062 303.5625 158.8125 304.394531 C 157.15625 303.351562 155.425781 302.351562 154 301.121094 C 150.425781 298.023438 147.253906 294.273438 144.378906 290.53125 C 143.625 289.550781 142.28125 290.664062 142.890625 291.679688 C 144.972656 295.125 147.269531 298.277344 149.945312 301.296875 C 151.066406 302.550781 152.683594 304.414062 154.527344 306.015625 C 151.683594 306.730469 148.582031 306.824219 145.132812 306.265625 C 144.792969 305.921875 144.449219 305.570312 144.117188 305.183594 C 139.710938 300.019531 136.109375 294.117188 132.703125 288.273438 C 132.226562 287.460938 130.808594 288.203125 131.226562 289.050781 C 133.984375 294.628906 136.867188 300.160156 140.507812 305.203125 C 139.933594 305.03125 139.363281 304.867188 138.765625 304.667969 C 135.519531 303.566406 132.386719 302.1875 129.289062 300.730469 C 129.277344 300.71875 129.269531 300.707031 129.257812 300.6875 C 125.761719 294.726562 123.054688 288.285156 119.859375 282.15625 C 119.46875 281.398438 118.1875 282.027344 118.511719 282.820312 C 120.339844 287.238281 122.253906 292.949219 124.695312 298.535156 C 121.933594 297.183594 119.171875 295.847656 116.375 294.613281 C 114.539062 290.214844 113.042969 285.671875 111.410156 281.210938 C 111.175781 280.5625 110.226562 280.769531 110.359375 281.46875 C 111.042969 285.136719 111.976562 289.226562 113.246094 293.304688 C 112.574219 293.03125 111.910156 292.753906 111.222656 292.511719 C 110.628906 292.292969 110.289062 293.179688 110.800781 293.496094 C 111.796875 294.113281 112.855469 294.753906 113.945312 295.40625 C 116.367188 302.460938 119.878906 309.242188 125.050781 313.492188 C 125.6875 314.007812 126.421875 313.292969 126.105469 312.609375 C 123.769531 307.660156 120.398438 303.222656 118 298.265625 C 117.898438 298.066406 117.816406 297.851562 117.722656 297.648438 C 120.507812 299.265625 123.46875 300.910156 126.535156 302.441406 C 130.316406 310.007812 135.3125 316.667969 142.765625 318.570312 C 143.621094 318.789062 143.996094 317.640625 143.433594 317.121094 C 139.160156 313.175781 135.414062 309.535156 132.140625 305.066406 C 135.878906 306.679688 139.675781 308.027344 143.390625 308.890625 C 146.050781 312.03125 150.410156 316.449219 154.605469 314.875 C 155.027344 314.71875 155.285156 314.125 154.875 313.789062 C 153.042969 312.304688 151.203125 311.117188 149.425781 309.851562 C 152.78125 310.097656 155.988281 309.792969 158.933594 308.785156 C 160.132812 309.203125 161.339844 309.300781 162.492188 308.886719 C 162.964844 308.71875 163.25 308.046875 162.886719 307.636719 C 162.742188 307.464844 162.578125 307.3125 162.417969 307.152344 C 164.351562 305.988281 166.136719 304.4375 167.699219 302.390625 C 168.113281 302.351562 168.523438 302.269531 168.929688 302.109375 C 169.734375 301.785156 169.632812 300.835938 169.109375 300.332031 C 169.871094 299.09375 170.558594 297.691406 171.1875 296.160156 C 171.691406 295.953125 172.144531 295.574219 172.511719 294.945312 C 172.691406 294.648438 172.550781 294.296875 172.273438 294.121094 C 172.191406 294.058594 172.089844 294.03125 172 293.984375 C 172.136719 293.578125 172.289062 293.199219 172.421875 292.765625 C 172.660156 291.988281 171.59375 291.734375 171.203125 292.304688 Z M 171.203125 292.304688 " fill-opacity="1" fill-rule="nonzero"/></g></g></g><g clip-path="url(#id73)"><g clip-path="url(#id74)"><g clip-path="url(#id75)"><path fill="#050a30" d="M 175.632812 288.097656 C 174.753906 288.164062 173.878906 288.320312 173 288.210938 C 172.050781 288.089844 171.191406 287.492188 170.472656 286.90625 C 169.445312 286.058594 168.335938 287.707031 169.292969 288.5625 C 171.101562 290.199219 174.355469 291.527344 176.3125 289.425781 C 176.796875 288.898438 176.296875 288.050781 175.632812 288.097656 Z M 175.632812 288.097656 " fill-opacity="1" fill-rule="nonzero"/></g></g></g><g clip-path="url(#id76)"><g clip-path="url(#id77)"><g clip-path="url(#id78)"><path fill="#050a30" d="M 182.214844 282.167969 C 181.597656 282.230469 181.253906 282.21875 180.679688 282.488281 C 180.296875 282.667969 179.878906 282.792969 179.472656 282.910156 C 178.019531 283.3125 178.640625 285.351562 180.058594 284.878906 C 180.539062 284.71875 181.015625 284.539062 181.472656 284.320312 C 182.148438 283.988281 182.359375 283.660156 182.691406 283.011719 C 182.867188 282.671875 182.660156 282.128906 182.214844 282.167969 Z M 182.214844 282.167969 " fill-opacity="1" fill-rule="nonzero"/></g></g></g><g clip-path="url(#id79)"><g clip-path="url(#id80)"><g clip-path="url(#id81)"><path fill="#050a30" d="M 512.3125 174.152344 C 511.484375 173.773438 510.636719 175.027344 511.445312 175.539062 C 516.191406 178.550781 520.550781 181.785156 524.851562 185.410156 C 525.664062 186.097656 526.816406 184.90625 526.160156 184.089844 C 522.585938 179.628906 517.445312 176.523438 512.3125 174.152344 Z M 512.3125 174.152344 " fill-opacity="1" fill-rule="nonzero"/></g></g></g><g clip-path="url(#id82)"><g clip-path="url(#id83)"><g clip-path="url(#id84)"><path fill="#050a30" d="M 520.664062 175.125 C 523.257812 177.367188 525.757812 179.6875 528.1875 182.109375 C 530.550781 184.464844 532.820312 187.804688 535.90625 189.152344 C 536.464844 189.394531 537.125 188.90625 536.917969 188.285156 C 535.960938 185.367188 533.257812 183.449219 531.050781 181.414062 C 528.082031 178.691406 524.71875 176.351562 521.429688 174.054688 C 520.808594 173.628906 520.113281 174.636719 520.664062 175.125 Z M 520.664062 175.125 " fill-opacity="1" fill-rule="nonzero"/></g></g></g><g clip-path="url(#id85)"><g clip-path="url(#id86)"><g clip-path="url(#id87)"><path fill="#050a30" d="M 585.222656 137.847656 C 582.785156 138.128906 581.242188 140.160156 579.386719 141.644531 C 579.214844 141.789062 579.039062 141.90625 578.867188 142.03125 C 578.71875 140.960938 578.507812 139.886719 578.164062 138.808594 C 577.945312 138.128906 576.765625 138.117188 576.699219 138.898438 C 576.546875 140.675781 576.320312 142.347656 576.054688 143.988281 C 572.460938 146.226562 568.507812 147.925781 564.636719 149.582031 C 563.765625 149.957031 564.023438 151.476562 565.03125 151.273438 C 568.542969 150.558594 571.945312 149.507812 575.207031 148.082031 C 574.46875 151.046875 573.46875 153.824219 572.144531 156.503906 C 567.339844 158.363281 562.269531 159.402344 557.199219 160.253906 C 556.09375 160.441406 556.25 162.042969 557.375 161.992188 C 560.707031 161.832031 565.300781 161.382812 569.980469 160.371094 C 568.566406 162.582031 566.90625 164.757812 564.941406 166.949219 C 564.746094 167.167969 564.738281 167.4375 564.824219 167.675781 C 561.890625 168.109375 558.90625 168.164062 555.925781 167.761719 C 554.6875 167.585938 554.515625 169.382812 555.695312 169.652344 C 560.765625 170.8125 566.140625 170.949219 571.191406 169.496094 C 571.457031 169.421875 571.75 169.332031 572.027344 169.246094 C 569.765625 172.15625 567.253906 174.734375 564.441406 176.949219 C 562.886719 177.160156 561.316406 177.320312 559.648438 177.171875 C 556.101562 176.859375 552.769531 175.617188 549.652344 173.953125 C 548.65625 173.429688 547.796875 175.066406 548.71875 175.675781 C 551.554688 177.582031 555.492188 179.449219 559.492188 180.246094 C 557.148438 181.582031 554.632812 182.722656 551.882812 183.652344 C 551.488281 183.484375 551.089844 183.304688 550.703125 183.113281 C 546.546875 180.957031 542.707031 178.011719 539.105469 175.042969 C 538.347656 174.417969 537.441406 175.496094 538.117188 176.1875 C 541.289062 179.402344 544.582031 182.253906 548.296875 184.707031 C 546.707031 185.113281 545.074219 185.476562 543.34375 185.761719 C 539.359375 182.769531 535.714844 179.4375 532.238281 175.855469 C 531.625 175.234375 530.570312 176.1875 531.09375 176.875 C 533.230469 179.691406 536.039062 183.183594 539.242188 186.285156 C 539.140625 186.300781 539.054688 186.316406 538.960938 186.320312 C 538.46875 186.367188 538.457031 187.183594 538.925781 187.273438 C 539.476562 187.378906 540.023438 187.464844 540.574219 187.53125 C 544.160156 190.765625 548.152344 193.375 552.203125 193.976562 C 552.761719 194.0625 553.433594 193.378906 552.972656 192.84375 C 551.164062 190.742188 548.734375 189.3125 546.367188 187.816406 C 548.355469 187.746094 550.324219 187.492188 552.253906 187.078125 C 555.445312 188.71875 559.78125 190.269531 562.742188 188.226562 C 563.117188 187.96875 563.179688 187.335938 562.714844 187.109375 C 561.121094 186.351562 559.425781 185.882812 557.710938 185.4375 C 561.082031 184.128906 564.265625 182.328125 567.199219 180.136719 C 568.632812 179.710938 569.980469 179.03125 571.160156 177.992188 C 571.636719 177.574219 571.605469 177.015625 571.300781 176.644531 C 574.359375 173.695312 576.996094 170.292969 579.082031 166.585938 C 581.507812 165.363281 583.679688 163.785156 584.917969 161.667969 C 585.199219 161.171875 584.710938 160.445312 584.144531 160.542969 C 583.289062 160.691406 582.453125 160.949219 581.628906 161.25 C 582.417969 159.242188 583.042969 157.171875 583.496094 155.058594 C 586.894531 152.6875 589.292969 149.527344 589.679688 145.347656 C 589.734375 144.75 589.128906 144.175781 588.554688 144.574219 C 586.753906 145.835938 585.222656 147.242188 583.726562 148.644531 C 583.375 148.554688 582.957031 148.664062 582.8125 149.039062 C 582.714844 149.292969 582.609375 149.527344 582.511719 149.78125 C 580.75 151.433594 578.941406 153.035156 576.75 154.367188 C 577.964844 151.761719 578.765625 149.03125 578.988281 146.21875 C 579.050781 146.183594 579.117188 146.152344 579.179688 146.121094 C 581.824219 144.617188 586.140625 142.277344 586.21875 138.878906 C 586.234375 138.300781 585.851562 137.785156 585.222656 137.847656 Z M 575.488281 164.242188 C 574.457031 164.78125 573.417969 165.289062 572.367188 165.691406 C 570.519531 166.402344 568.621094 166.953125 566.695312 167.347656 C 569.269531 165.046875 571.753906 162.363281 573.820312 159.40625 C 575.664062 158.871094 577.480469 158.238281 579.183594 157.472656 C 578.027344 159.867188 576.800781 162.125 575.488281 164.242188 Z M 575.488281 164.242188 " fill-opacity="1" fill-rule="nonzero"/></g></g></g><g clip-path="url(#id88)"><g clip-path="url(#id89)"><g clip-path="url(#id90)"><path fill="#050a30" d="M 574.246094 135.226562 C 572.015625 136.636719 569.546875 137.667969 567.074219 138.578125 C 565.9375 138.984375 566.539062 140.902344 567.707031 140.597656 C 569.460938 140.15625 580.976562 137.144531 578.722656 133.804688 C 577.664062 132.242188 575.148438 134.660156 574.246094 135.226562 Z M 574.246094 135.226562 " fill-opacity="1" fill-rule="nonzero"/></g></g></g><path fill="#f4a67e" d="M 412.894531 455.257812 C 439.132812 452.90625 459.703125 427.125 457.089844 397.734375 C 454.511719 368.316406 427.769531 349.191406 399.109375 354.910156 C 370.394531 360.632812 352.414062 386.132812 357.402344 412.175781 C 362.453125 438.214844 386.597656 457.613281 412.894531 455.257812 " fill-opacity="1" fill-rule="nonzero"/><path stroke-linecap="round" transform="matrix(0.13402, 0, 0, -0.13405, 175.143993, 835.379978)" fill="none" stroke-linejoin="round" d="M 1773.964127 2835.587551 C 1969.743008 2853.129982 2123.229921 3045.45564 2103.730729 3264.677749 C 2084.493858 3484.13298 1884.955042 3626.803649 1671.105161 3584.142322 C 1456.876371 3541.451854 1322.71377 3351.224295 1359.934201 3156.94624 C 1397.62098 2962.726467 1577.77719 2818.01598 1773.964127 2835.587551 Z M 1773.964127 2835.587551 " stroke="#231f20" stroke-width="30" stroke-opacity="1" stroke-miterlimit="10"/><path fill="#f4a67e" d="M 469.5625 502.386719 C 491.335938 477.261719 513.625 450.644531 536.289062 422.414062 C 545.203125 411.335938 544.84375 393.753906 534.835938 383.914062 C 524.84375 374.046875 509.332031 375.707031 500.800781 386.804688 C 478.984375 415.132812 457.511719 441.824219 436.515625 467 C 435.464844 468.273438 434.570312 469.625 433.824219 471.050781 C 418.921875 472.28125 404.015625 473.503906 389.105469 474.734375 C 388.167969 473.503906 387.085938 472.371094 385.855469 471.359375 C 361.398438 451.136719 334.921875 432.515625 306.601562 415.683594 C 295.453125 409.074219 280.226562 412.421875 273.121094 422.371094 C 265.984375 432.335938 269.398438 445.265625 280.175781 451.992188 C 307.746094 469.054688 333.414062 487.875 357.050781 508.214844 C 358.21875 509.21875 359.449219 510.070312 360.730469 510.785156 C 361.613281 512.015625 362.601562 513.125 363.679688 514.121094 C 363.144531 540.261719 361.808594 566.265625 359.617188 592.117188 C 359.675781 595.066406 360.105469 597.925781 360.835938 600.667969 C 354.9375 633.554688 348.03125 665.894531 340.179688 697.699219 C 337.136719 710.300781 343.597656 724.710938 354.550781 730.167969 C 365.5 735.613281 377.714844 729.558594 381.867188 716.351562 C 391.058594 686.558594 399.382812 656.191406 406.886719 625.3125 C 411.292969 625.597656 415.695312 625.898438 420.105469 626.1875 C 422.613281 658.160156 423.109375 690.5 421.496094 723.003906 C 420.863281 737.308594 429.652344 748.035156 441.941406 746.761719 C 454.210938 745.511719 465.917969 732.21875 467.273438 717.273438 C 470.566406 679.867188 471.210938 642.542969 469.304688 605.605469 C 470.414062 602.574219 471.191406 599.332031 471.5625 595.933594 C 470.875 566.546875 468.65625 537.339844 464.96875 508.40625 C 465.816406 507.261719 466.570312 506.003906 467.238281 504.664062 C 468.042969 503.972656 468.824219 503.226562 469.5625 502.386719 " fill-opacity="1" fill-rule="nonzero"/><g clip-path="url(#id91)"><path stroke-linecap="round" transform="matrix(0.13402, 0, 0, -0.13405, 175.144007, 835.380026)" fill="none" stroke-linejoin="round" d="M 2196.796035 2484.039653 C 2359.260136 2671.440588 2525.571611 2870.002237 2694.681176 3080.59881 C 2761.194108 3163.211413 2758.512605 3294.371669 2683.838577 3367.775954 C 2609.281137 3441.38422 2493.53931 3428.999615 2429.882762 3346.21217 C 2267.098046 3134.887092 2106.878246 2935.800917 1950.214353 2747.992019 C 1942.373871 2738.492298 1935.699261 2728.409772 1930.132227 2717.773582 C 1818.937296 2708.594404 1707.713218 2699.473506 1596.48914 2690.294328 C 1589.493915 2699.473506 1581.42026 2707.924178 1572.239027 2715.471502 C 1389.751094 2866.330566 1192.19428 3005.242128 980.880191 3130.778317 C 897.695307 3180.083616 784.081193 3155.110424 731.063217 3080.919352 C 677.812067 3006.58258 703.286344 2910.128359 783.702285 2859.948852 C 989.420195 2732.664249 1180.943627 2592.266534 1357.310738 2440.533262 C 1366.025622 2433.044219 1375.206855 2426.691645 1384.766996 2421.358979 C 1391.354166 2412.179801 1398.728299 2403.903971 1406.772808 2396.473208 C 1402.779701 2201.495808 1392.811505 2007.509177 1376.460166 1814.659016 C 1376.897368 1792.658129 1380.103513 1771.327467 1385.553959 1750.871013 C 1341.542335 1505.539265 1290.010844 1264.316293 1231.425834 1027.056393 C 1208.7205 933.049953 1256.929259 825.551579 1338.656804 784.842652 C 1420.355203 744.221146 1511.497156 789.388531 1542.480174 887.911709 C 1611.062526 1110.164381 1673.145148 1336.671528 1729.136095 1567.025189 C 1762.013653 1564.897951 1794.862063 1562.654152 1827.768768 1560.497773 C 1846.480995 1321.984843 1850.182635 1080.761871 1838.145018 838.285867 C 1833.423241 731.574279 1899.003476 651.555158 1990.699217 661.054879 C 2082.249225 670.379758 2169.602098 769.544022 2179.716027 881.034611 C 2204.286755 1160.081626 2209.095972 1438.487555 2194.872348 1714.03774 C 2203.150031 1736.650572 2208.950238 1760.836978 2211.719182 1786.188994 C 2206.58935 2005.411079 2190.033984 2223.263573 2162.519432 2439.10539 C 2168.844281 2447.643483 2174.469608 2457.026643 2179.453706 2467.021748 C 2185.457941 2472.179572 2191.287295 2477.745359 2196.796035 2484.039653 Z M 2196.796035 2484.039653 " stroke="#231f20" stroke-width="30" stroke-opacity="1" stroke-miterlimit="10"/></g></svg>